<?xml version="1.0" encoding="utf-8"?>
<!-- Generator: Adobe Illustrator 22.0.1, SVG Export Plug-In . SVG Version: 6.00 Build 0)  -->
<svg version="1.1" id="Artwork" xmlns="http://www.w3.org/2000/svg" xmlns:xlink="http://www.w3.org/1999/xlink" x="0px" y="0px"
	 viewBox="0 0 600 600" style="enable-background:new 0 0 600 600;" xml:space="preserve">
<style type="text/css">
	.st0{display:none;fill:#FFFFFF;}
	.st1{fill:#363B3D;}
</style>
<rect class="st0" width="600" height="600"/>
<g>
	<path class="st1" d="M313,581.6c0.2,3.5-2.5,4.8-5.2,5.8c-13.6,5.1-27.4,6-41.3,1.4c-1.8-0.6-3.8-1-5.5-1.9
		c-1.3-0.6-2.6-1.3-2.8-3.2c-1.4-9.7-2.4-19.3-2.9-29.1c-0.4-8.3-1.5-16.6-2.2-25c-0.4-5.8-0.6-11.7-0.8-17.5c0-0.6,0-1.3-0.1-1.9
		c-0.5-3.3,1.3-5.4,3.7-7.3c6.6-5.1,14.4-6.1,22.3-7c2.6-0.3,5.2-0.5,7.8-0.6c8.1,0,15.9,1.3,23.3,4.8c1.2,0.6,2.3,1.5,3.3,2.4
		c1.3,1.2,2,2.8,1.8,4.6c0,0.6,0,1.3,0.1,2c1.3,0,2.6,0,3.7,0c-0.5-2.2-1.2-4.3-1.6-6.5c-0.6-3.1,0.4-6,1.8-8.7
		c1.1-2.1,3.5-2.9,5.8-2.1c1.4,0.5,2.8,1.3,4,2.2c1.3,1,2.4,2.2,3.4,3.3c4.8,5.2,10.3,9.3,17,11.6c1.1,0.4,2.2,0.5,3.4,0.7
		c3.7,0.6,7.2,1.7,10.1,4.9c0-1,0.1-1.5,0.1-2.1c0-11,0-22,0-33c0-1.3,0.1-2.7,0.4-4c0.3-1.5,1.3-1.8,2.3-0.7c1.2,1.3,2.5,2.5,3.4,4
		c6.6,10.9,11.9,22.4,14.3,34.9c0.9,4.6,0.8,9.4,1.1,14.2c0.1,2.4-1.2,4.3-2.7,6c-2.7,2.9-6,4.9-10,5.2c-1.1,0.1-1.1,0.7-1.2,1.5
		c-0.1,4.1-0.2,8.3-0.5,12.4c-0.2,2.2-0.7,4.3-1.1,6.5c-0.1,0.5-0.5,1-0.8,1.5c-0.2-0.1-0.3-0.1-0.5-0.2c0-0.7,0-1.3,0-2
		c0.6-8.1,0.7-16.1-0.4-24.1c-0.6-4.2-1.4-8.4-3.6-12.1c-1-1.7-1.5-3.7-2.7-5.3c-2-2.7-4.7-4-8.2-4.2c-8.6-0.6-16.2,2.2-23.3,6.6
		c-3.8,2.4-6.1,7.7-5.3,12.1c0.4,2.4,2.6,4,5,3.8c4.9-0.4,9.9-0.6,14.8-1c0.4,0,0.9-0.4,1.2-0.7c1.1-0.8,2.2-0.3,2.4,1
		c0.4,2.7,0,3.2-2.7,3.3c-4.8,0.2-9.7,0.5-14.6,0.4c-6.3-0.1-10.2,7.3-6.9,12.6c0.9,1.5,2.1,2.3,3.9,2.3c5-0.2,10-0.3,15-0.6
		c1.3-0.1,2.6-0.7,3.9-0.9c0.6-0.1,1.3,0.3,2,0.4c-0.2,0.6-0.4,1.3-0.7,1.9c-0.1,0.2-0.5,0.4-0.8,0.4c-3.1,0.6-5.9,2-9.1,2
		c-3.8,0-7.7-0.5-11.5,0.5c-1.5,0.4-2.4,1.1-2.9,2.5c-1.1,2.9-0.2,6.2,2.1,8.2c0.6,0.5,1.4,0.9,2.1,1c4.7,0.4,9.5,0.8,14.2,1.1
		c0.6,0,1.1-0.5,1.7-0.7c0.7-0.2,1.3-0.6,2-0.6c0.2,0,0.8,0.9,0.7,1.1c-0.4,0.6-1,1.4-1.6,1.6c-3.5,1.5-7.2,1.5-10.9,1.2
		c-2.6-0.2-5.2,0.2-7.7-0.7c-0.3-0.1-0.9,0.2-1.2,0.5c-2,1.6-2.1,4.4-0.2,6.3c4.7,4.6,10.4,5.8,16.7,4.9c2.9-0.4,5.9-0.4,8.8-0.8
		c3.2-0.4,6.3-1.1,9.4-1.8c2.8-0.6,5.2-2.1,7.1-4.2c0.7-0.8,1.4-1,2.4-0.4c0.3,0.2,0.8,0.3,1.1,0.3c6.5-0.9,13.1-1.4,19.4-2.9
		c13.2-3.2,20.5-12.4,24-25.1c1.4-4.8,1.2-9.7,0.8-14.6c-2.7-30.5-12.2-59-25.5-86.3c-3.4-7-8.3-13.4-12.8-19.9
		c-10.4-15.1-22.3-28.9-35.7-41.5c-1.6-1.5-1.7-1.7-3.3-0.1c-2.9,2.9-5.7,5.9-8.5,8.9c-3.9,4.1-8,8-11.8,12.1
		c-1.6,1.7-3,3.8-4.5,5.6c-0.4,0.5-1.2,1.1-1.7,1c-1-0.1-1-1-0.9-1.9c0.2-1.6,0.2-3.2,0.3-4.5c-2.7,0.1-5.2,0.2-7.6,0.3
		c-0.3,0-0.6,0.4-0.8,0.7c-1.8,3.7-3.6,7.4-5.3,11.1c-0.2,0.4-0.1,1.1,0,1.5c3.7,15.6,7.4,31.2,11.1,46.9c0.4,1.9,0.6,3.8,0.9,5.8
		c0.1,0.9-0.2,1.5-1.2,1.7c-0.4,0.1-0.9,0.5-1.2,0.8c-4.7,3.7-9.3,7.4-13.9,11.2c-1.1,0.9-2.3,1.7-3.4,2.6c-0.8,0.6-2.1,0.4-2.8-0.4
		c-4.3-4.7-8.5-9.5-13.1-14.1c-2.4-2.4-3-4.6-2-7.9c4.9-16.1,9.6-32.2,14.3-48.3c0.1-0.3,0.1-0.9-0.2-1.2c-3-3.1-5-6.8-6.3-10.8
		c-0.3-0.9-0.7-1.2-1.7-1c-2.7,0.5-5.1-0.4-7.4-1.9c-0.5-0.3-0.9-0.6-1.5-1c-0.3,1.5-0.4,2.9-0.8,4.2c-0.6,2.3-1.8,2.7-3.7,1.3
		c-8.6-6-16.5-12.7-23.1-20.9c-0.3-0.3-0.6-0.7-1-1.1c-0.5,0.6-1,1-1.4,1.6c-7,8.5-14.4,16.7-20,26.2c-10.3,17.5-17.5,36.3-22.2,56
		c-4.4,18.4-6.5,37.1-7.3,56c-0.7,14.8-0.3,29.5,0.1,44.3c0,0.9-0.1,1.9-0.2,2.8c-0.2,0-0.5,0.1-0.7,0.1c-0.9-2.3-2.2-4.5-2.6-6.8
		c-1.4-8.4-2-16.9-1.7-25.4c0.3-8.9,0.5-17.7,1.1-26.5c1.3-19.1,4.1-38,9.9-56.3c2.7-8.7,5.7-17.3,9.1-25.7
		c6.6-16.5,16-31.2,28.3-44.1c1.2-1.3,2.5-2.4,3.9-3.7c-0.6-0.7-1.2-1.3-1.7-1.9c-2-2.1-3.2-4.6-3.8-7.4c-0.1-0.7-0.1-1.5,0.1-2.2
		c3.9-10.8,7.4-21.7,9.5-33c0.8-4.2,3.3-6.7,6.8-8.4c2.9-1.4,6-2.5,9.1-3.8c-0.2-0.3-0.4-0.6-0.7-0.9c-8.4-10.1-17.1-19.9-25.2-30.2
		c-10.7-13.6-19.5-28.4-25.4-44.7c-1.9-5.3-2.7-11.1-3.7-16.7c-3.6-21.3-3.4-42.7-2-64.1c0.3-4.3,0.4-8.6,1.1-12.9
		c0.6-4.1,1.8-8.2,2.7-12.3c1.8-8.5,5.2-16.3,9.8-23.6c5.2-8.4,12.3-15.1,20.2-21c7.3-5.5,15.8-8.8,24.1-12.4
		c8-3.5,16.3-5.6,24.9-6.1c3.8-0.2,7.6-0.2,11.4-0.1c7.1,0.3,14.3-0.1,21.4,1.6c14.7,3.5,28.1,9.4,39.7,19.6
		c6.5,5.8,11.8,12.3,15.8,20c6.7,12.6,11.7,25.9,12.7,40.2c0.6,8.7,0.6,17.4,0.1,26.1c-1,20.9-5.2,41.4-11,61.5
		c-0.9,3.3-2.5,6.4-3.9,9.6c-6,13.2-14.5,24.8-24.2,35.5c-5.5,6.1-11.7,11.6-17.4,17.5c-3.1,3.2-6,6.7-9,10c-0.4,0.4-0.6,0.9-1,1.6
		c2.6,0.3,4.9,0.6,7.3,0.9c2.8,0.4,5.7,0.6,8.1,2.3c1.2,0.8,1.9,1.7,2.2,3c3.1,11.7,7.4,23,12.4,34.1c0.6,1.3,1.2,2.6,1.9,3.9
		c0.5,1,0.2,1.6-0.5,2.5c-1.8,2.2-3.4,4.7-5,7.1c-0.1,0.2,0.2,1,0.6,1.3c7.8,7.3,14.9,15.1,21.5,23.4c9.3,11.6,18.6,23.3,25.7,36.4
		c10,18.3,18.9,37.2,22.7,58c1,5.6,2,11.3,3.5,16.7c1.9,6.8,2.2,13.7,2.1,20.7c0,7.5-1.5,14.8-4.6,21.7c-2,4.6-5.4,8.1-9.5,10.8
		c-7.6,5.1-15.5,9.7-24.8,10.9c-4.1,0.5-8.3,0.2-12.4,0.4c-0.4,0-0.9,0-1.2,0.3c-4,3-8.7,3.9-13.5,4.4c-2.1,0.2-4.2,0.1-6.3,0.3
		c-1.1,0.1-2.1,0.4-3.2,0.6c-6.6,1-12.9,0.4-18.4-3.8c-1.5-1.1-2.9-1.7-4.8-1.5C317.1,581.7,315.2,581.6,313,581.6z M321.5,569.9
		c-2.5,0.7-4.9,1.4-7.6,2.1c-0.1,1.8-0.3,3.9-0.5,6.1c2,0,3.9,0,6,0c-1.4-2.7-0.6-4.9,1.1-7C320.8,570.7,321.1,570.3,321.5,569.9
		c0-0.1,0.1-0.1,0.1-0.2C321.5,569.8,321.5,569.9,321.5,569.9z M290.1,376.5c0.8-2.3,1.5-4.2,2.2-6.1c2.6-7.1,4.9-14.4,12.2-18.5
		c0.1-0.1,0.3-0.2,0.4-0.3c0.2-0.4,0.4-0.8,0.5-1.2c0.2-3,0.3-6.1,0.6-9.1c1.1-10.9,6.4-19.6,14.1-27.1c2.8-2.7,6.1-4.9,9-7.5
		c9.4-8.6,17.9-17.9,24.8-28.7c5-8,10-16,12.9-25c5.6-17.5,8.5-35.5,10.1-53.7c0.7-8.8,0.5-17.6,0.7-26.4c0.1-8.3-1.3-16.4-3.5-24.3
		c-2.7-9.4-6.9-18.2-11.7-26.8c-1.6-2.9-3.9-5.5-6-8.2c-0.8-1-1.9-1.7-2.8-2.7c-4.2-4.3-8.6-8.3-13.8-11.2
		c-7.8-4.3-15.9-7.9-24.6-9.9c-11-2.6-22.3-3.2-33.6-2.2c-9.4,0.8-18.4,3.3-27.2,7c-9.9,4.2-19,9.3-26.7,17
		c-4.7,4.8-9.4,9.6-12.7,15.5c-7.4,12.9-10.8,27.1-12.6,41.7c-0.7,5.4-0.8,11-1,16.5c-0.5,17.4-0.3,34.8,3,52
		c2.1,10.9,5,21.5,10.8,31.1c5.4,9,10.6,18.2,17.5,26.2c8.2,9.6,16.7,19,25.2,28.4c2.3,2.6,4.3,5.3,5.5,8.5
		c1.9,5.2,3.8,10.4,5.5,15.7c0.6,1.7,0.4,3.8,1.5,5c1,1.3,3.1,1.8,4.7,2.5c2.8,1.3,4.9,3.4,6.4,6.1c1.9,3.4,3.9,6.8,5.8,10.2
		C288,372.9,289,374.5,290.1,376.5z M255.3,511.9c0.4,4,0.7,7.8,1,11.6c1.4,14.3,2.7,28.7,4.1,43c0.5,5.3,1.2,10.5,1.8,15.8
		c0.1,0.5,0.4,1.3,0.8,1.4c3.5,1.3,7,2.8,10.7,3.5c10.1,1.9,20.1,1.2,30-1.7c1.9-0.6,3.7-1.7,5.4-2.8c0.5-0.3,0.9-1.2,1-1.9
		c0.4-6.8,0.8-13.7,0.9-20.5c0.3-13.2,0.6-26.3,0.8-39.5c0.1-3.7,0-7.5,0-11.3c-2.2,0.8-4.2,1.8-6.4,2.1c-5,0.8-10,1.4-15,1.8
		c-3.2,0.3-6.5-0.1-9.7,0C272.2,514,263.8,513.9,255.3,511.9z M264.3,350.1c0.1-0.1,0.2-0.2,0.3-0.4c-0.3-1.2-0.7-2.4-1-3.6
		c-1.2-4.3-2.7-8.5-5.1-12.3c-0.4-0.7-0.8-1-1.7-0.7c-3.7,1.6-7.4,3-11.1,4.6c-0.5,0.2-1.1,1-1.2,1.7c-1.6,12.2-5.2,23.8-9.8,35.1
		c-0.6,1.4-0.4,2.1,0.5,3.2c3.3,4,6.3,8.2,9.7,12.1c5.3,6.1,11.6,11,17.9,15.9c0.1,0.1,0.3,0.1,0.9,0.3c0-1.9-0.2-3.7,0-5.4
		c1.4-10.1,3.4-20,6.3-29.8c0.8-2.8,2.1-5.5,3.3-8.2c0.2-0.5,1.3-1.2,1.8-1c1.1,0.3,0.7,1.3,0.5,2.1c-1.5,5.5-2.9,11-4.4,16.5
		c-0.2,0.7-0.2,1.2,0.6,1.5c5.7,2.4,10.7,5.9,15.6,9.6c0.3,0.2,0.6,0.3,1.1,0.6c0-3.8,0-7.4,0-10.9c0-0.4-0.1-0.8-0.3-1.1
		c-1.9-3.6-4-7.1-5.8-10.7c-1.6-3-3-6.1-4.5-9.1c-0.2-0.4-0.5-0.8-0.9-0.9c-2.7-1.3-5.3-2.6-8-3.8c-3.3-1.5-6.6-2.8-9.9-4.3
		c-3.8-1.8-7-4.5-9.6-7.8c-0.4-0.5-0.2-1.4-0.3-2.1c0.6,0.1,1.4,0,1.8,0.4c2.6,1.8,5.1,3.7,7.7,5.4
		C260.4,348.2,262.4,349.1,264.3,350.1z M292.1,391.5c0.2-0.1,0.3-0.1,0.4-0.1c4.3-2.6,8.7-5.1,13-7.7c0.3-0.2,0.6-0.8,0.5-1.2
		c-1.2-6.3-1.3-12.8-4.1-18.8c-0.2-0.5,0.2-1.2,0.3-1.8c0.6,0.2,1.3,0.2,1.6,0.6c2.5,2.6,3.5,6,4,9.4c1.4,9.2,2.5,18.4,3.6,27.7
		c0.3,2.3,0.2,4.6,0.3,7c0.3-0.1,0.4-0.1,0.5-0.2c3.1-3,6.2-6,9.1-9.1c4.7-5.1,9.3-10.3,13.9-15.5c2-2.2,3.8-4.5,5.8-6.7
		c0.9-1.1,1.2-2.2,0.3-3.6c-0.5-0.7-0.8-1.6-1.1-2.4c-1.7-4.5-3.2-9.2-5.2-13.6c-2.7-6.3-4.7-12.7-6.1-19.4
		c-0.5-2.7-1.1-3.2-3.8-3.6c-3.6-0.6-7.1-1-10.7-1.6c-1.2-0.2-1.8,0-2,1.1c-0.6,2.8-1.2,5.7-1.6,8.5c-0.2,1.9,0,3.9,0,6.2
		c0.6-0.5,1-0.8,1.4-1.1c2.4-2.3,4.9-4.6,7.3-6.9c0.4-0.3,1.1-0.3,1.7-0.4c0.1,0.6,0.4,1.3,0.3,1.8c-0.2,0.7-0.7,1.3-1.2,1.9
		c-3.8,4.6-8.3,8.5-13,12.2c-1.8,1.4-3.9,2.4-5.3,4.1c-1.7,2.2-3.1,4.8-4.2,7.4c-2.3,5.2-4.4,10.5-6.6,15.8
		c-0.1,0.3-0.2,0.6-0.2,0.9C291.7,385.2,291.9,388.3,292.1,391.5z M365.1,481.2c0.2,2.6,0.4,5.1,0.5,7.6c0.2,10.5,0.4,20.9,0.6,31.4
		c0,0.7,0.3,1.3,0.5,2c0.7,2.2,1.4,4.5,2,6.7c0.5,2,0.8,4,1.2,6.3c2.2-0.6,4.3-0.9,6.2-1.8c3.5-1.7,5.1-5.5,4.5-10
		c-0.6-3.9-1.2-7.8-2-11.7c-2.3-11-7.7-20.8-13.1-30.4C365.3,481.2,365.2,481.2,365.1,481.2z M274,510.9c5.2-0.3,9-0.5,12.7-0.7
		c5.4-0.4,10.9-0.7,16.3-1.2c2.4-0.2,4.8-0.8,6.9-2.3c1-0.8,1.1-1.6,0-2.2c-1.8-1-3.6-2-5.5-2.7c-8-3-16.3-2.9-24.6-2.6
		c-3.1,0.1-6.3,0.5-9.4,1.1c-4.8,0.9-9.1,3.2-13.2,5.8c-0.6,0.4-0.9,1.3-1.3,2c0.6,0.3,1.1,0.7,1.7,1c0.4,0.2,1,0.3,1.4,0.4
		C264.5,510,270,510.5,274,510.9z M322,555.3c-2.6-2.6-3.8-5.7-3.6-9.2c0.2-3.7,2.3-6.3,5-8.5c-5.1-5.1-3.8-10.5-1.3-16.3
		c-2.4-0.2-4.8-0.5-6.9-0.7c-0.2,15.9-0.5,31.6-0.7,47.6c1.8-0.4,3.6-0.7,5.5-1.1C318.5,562.7,318.7,558.7,322,555.3z M343.4,509.7
		c-5.4-2.7-10-6.4-13.9-11.1c-1.1-1.4-3-2.2-4.7-3.1c-0.5-0.3-1.3-0.1-1.9,0.1c-2.4,0.9-3.6,2.9-3.2,5.8c0.3,2.1,1.2,4.2,1.7,6.3
		c0.3,1.4,1.1,1.5,2.4,1.6c3.4,0.2,6.9,0.4,10,2.2c0.6,0.4,1.6,0.5,2.3,0.4C338.6,511.3,341,510.5,343.4,509.7z M314.8,517.1
		c3.3,0.3,6.4,0.6,9.5,0.9c0.3,0,0.7,0,1-0.1c1.8-1.2,3.6-2.4,5.6-3.8c-5.4-1.8-10.7-1.5-16.1-2.1
		C314.8,513.8,314.8,515.5,314.8,517.1z"/>
	<path class="st1" d="M228,487.8c-0.2,0.4-0.4,0.9-0.5,1.3c-4.5,14.2-7.3,28.8-8.6,43.6c-1.1,12.7-0.9,25.4,0.3,38.1
		c0.1,1.2,0.3,2.4,0.2,3.6c0,0.6-0.4,1.1-0.6,1.7c-0.4-0.4-1-0.8-1.1-1.2c-0.7-2.9-1.7-5.8-1.9-8.8c-0.5-8-1.1-16-1-24
		c0.1-13.1,2.2-25.9,5.2-38.6c1.5-6.4,2.5-12.9,5.2-18.9c1.2-2.7,2.5-5.3,3.9-7.9c0.2-0.5,1-1,1.5-0.9c0.4,0.1,1,0.9,1,1.4
		c0.1,3.8,0.1,7.6,0.1,11.3c0,1.8-0.2,3.7-0.2,5.5c-0.2,15.1-0.1,30.2-0.7,45.3c-0.4,11.5-0.1,22.9,0,34.4c0,1.2-0.1,2.4-0.3,3.6
		c-0.1,0.4-0.5,0.8-0.8,1.1c-0.3-0.4-0.9-0.7-1-1.1c-0.4-2.7-0.8-5.3-1-8c-1-16-1.3-32.1-1-48.2c0.2-10.1,0.9-20.2,1.3-30.3
		c0-1,0-2,0-3C228.2,487.9,228.1,487.8,228,487.8z"/>
	<path class="st1" d="M267.7,201.2c0,0.2,0.1,0.4,0.1,0.6c-0.3,0.4-0.6,0.8-0.8,1.3c-1.9,4.7-4.3,9.1-7.6,13c-2.7,3.2-6,5.6-9.7,7.4
		c-0.6,0.3-1.3,0.5-1.9,0.7c-0.1-0.1-0.1-0.2-0.2-0.3c0.7-0.5,1.3-1,2-1.4c7.7-5.2,12.3-12.6,15.6-21.1c0.1-0.2,0.1-0.5,0.1-0.7
		c0.1-0.1,0.1-0.2,0.2-0.3c0,0-0.1,0-0.1,0c0,0.1,0,0.2,0,0.4c-0.3,0.5-0.7,0.9-1,1.4c-3.3,6.1-7.7,11.2-13.7,14.8
		c-4.4,2.6-9.1,4.7-14.4,4.2c-0.7-0.1-1.3,0.2-2.1-0.1c0.4-0.2,0.9-0.4,1.4-0.5c2.7-0.4,5.4-0.4,7.9-1.3c2.4-0.8,4.6-2.3,6.7-3.8
		c1.5-1,2.7-2.5,4-3.7c0.1-0.1,0.2-0.2,0.3-0.3c0.1-0.1,0.1-0.3,0.2-0.4c0,0,0,0,0.1,0.1c0,0,0-0.1,0-0.1c-0.1,0.2-0.1,0.3-0.2,0.5
		c-0.1,0.1-0.2,0.2-0.3,0.3c-0.2,0.1-0.5,0.1-0.7,0.3c-4,3.4-8.8,4.7-14,5.3c0.4,0.1,0.8,0.2,1.6,0.4c-0.8,0.4-1.1,0.7-1.6,0.8
		c-2,0.3-4.1,0.9-6-0.7c-0.4-0.4-1.2-0.2-1.9-0.3c-10.8-1.6-18.9-7.2-24.4-16.6c-1-1.7-1.9-3.7-2.5-5.6c-0.6-1.8,0-2.7,1.8-3.4
		c16.4-6.1,33-11.9,50.1-15.8c2.7-0.6,5.4-1,8.1-1.5c0.5-0.1,1-0.1,1.5-0.3c3.8-1.4,3.3-0.8,4.6,2.6c1,2.6,1.3,5.5,1.5,8.4
		c0.9,12.1-2.8,23-9.6,32.9c-0.3,0.4-0.6,0.7-1.1,1c2-5.7,4.1-11.5,6.1-17.2L267.7,201.2z M237.2,185.9c-1,0.2-1.7,0.4-2.5,0.6
		c-8.2,2.5-16.5,5-24.7,7.4c-1.8,0.6-1.8,0.5-1.2,2.3c2.3,6.9,7.4,11.4,13.6,14.7c7.8,4,15.8,5.3,24.1,1.3c4.2-2.1,8.2-4.4,10.8-8.5
		c4.2-6.6,7-13.8,8.9-21.4c0.3-1.2,0.5-2.4,0.7-3.8c-2.4,0.5-4.5,1-6.6,1.5c-2.1,0.5-4.3,0.9-6.4,1.3c1,3,0.4,5.6-0.7,8.1
		c-2,4.6-6.8,6.1-11.2,3.5C239.3,191.4,237.5,189.2,237.2,185.9z M250.7,182.1c-3.7,1-7.3,2-10.9,3c1,2.2,2,4.1,4.1,5.3
		c2.2,1.2,4.5,0.8,5.8-1.3C251.1,187,251.5,184.7,250.7,182.1z M234.9,217.8c-0.1-0.1-0.1-0.1-0.2-0.1c0,0,0,0.1,0,0.1
		C234.8,217.8,234.9,217.8,234.9,217.8z"/>
	<path class="st1" d="M314.1,198.6c1.6,5.4,4,10.4,7.5,15c1.5,2,3.2,3.8,5.5,5c0.7,0.3,1.2,0.8,2,1.3c-0.4,0.2-0.7,0.3-1.5,0.6
		c3.8,2.3,7.3,4.5,10.8,6.6c0,0.1,0,0.2,0,0.3c-1.3-0.3-2.7-0.5-3.9-0.9c-5.3-1.9-9.5-5.3-13.1-9.4c-4.4-4.9-7.3-10.6-9.2-16.9
		c-0.2-0.5-0.3-1-0.6-1.5c1.7,11.7,6.3,22.1,15.2,30.3c-0.1,0.1-0.2,0.3-0.3,0.4c-0.6-0.3-1.3-0.6-1.9-1.1
		c-5.2-3.6-8.9-8.4-11.3-14.1c-4.4-10.4-6-21.3-4.9-32.6c0.2-1.8,0.9-3.5,1.5-5.1c0.4-1.1,1.3-1.6,2.6-1.2c10.5,3,21.1,5.9,31.6,8.8
		c2.4,0.7,4.9,1.2,7.2,2.1c4.7,1.7,9.2,3.5,13.9,5.2c1,0.4,2,0.7,2.9,1.2c1.6,0.8,3.1,1.7,4.7,2.6c1,0.6,0.9,1.6,0.5,2.5
		c-2.9,6.4-7,11.9-12.8,16c-4.3,3.1-8.7,6-14.2,6.6c-12.2,1.5-23.5-4.4-28.4-14.5c-1-2-1.9-4-2.8-6
		C314.7,199.3,314.4,199,314.1,198.6c0-0.2,0.1-0.4,0.1-0.6c0,0-0.1,0-0.1,0C314.1,198.2,314.1,198.4,314.1,198.6z M343.7,187.7
		c-0.2,0.4-0.3,0.7-0.4,0.9c-0.1,0.2-0.2,0.5-0.3,0.7c-1.2,3-3.2,5.3-6.4,6.3c-5.8,1.9-11.2-2.5-11.3-9.2c0-1.2,0.4-2.8-0.2-3.6
		c-0.6-0.8-2.3-0.8-3.4-1.2c-2.8-0.9-5.7-1.8-8.7-2.8c0,0.5,0,0.9,0.1,1.2c0.4,2.2,0.9,4.3,1.3,6.5c1.3,6.8,3.3,13.3,7.5,18.9
		c0.8,1.1,1.6,2.2,2.3,3.3c1.4,2.3,3.5,3.9,5.8,5c1.3,0.6,2.5,1.2,3.8,1.8c4.1,2,8.5,1.7,12.8,1c4.2-0.7,8.1-2.8,11.7-5.2
		c5.2-3.5,8.9-8.4,11.9-13.9C361.5,194.2,352.7,191,343.7,187.7z M340.6,186.6c-3.9-1-7.8-2-11.7-3c-0.7,2.8,0.4,5,1.5,7.2
		c0.7,1.5,1.9,1.9,3.5,1.8C337.3,192.5,339.7,190.4,340.6,186.6z M311.4,197.4c0,0,0-0.1,0-0.1c0,0-0.1,0-0.1,0
		C311.4,197.3,311.3,197.4,311.4,197.4C311.4,197.4,311.4,197.4,311.4,197.4z"/>
	<path class="st1" d="M270,152.2c1.4-2,1.9-4.1,1.9-6.3c0-2.4-0.4-4.9-0.7-7.3c-0.1-1-0.2-2,1-2.3c1.1-0.3,1.5,0.7,1.8,1.6
		c2,4.8,1.8,9.7,0.2,14.5c-0.5,1.6-1.1,3.2-2.9,4c-1.5,0.7-2.6,0.3-3.6-0.8c-2-2.3-2.5-2.2-3.7,0.6c-0.9,2.1-2.3,3.7-4.3,4.9
		c-12.3,7-24.9,13.2-38.4,17.5c-2.7,0.9-5.2,2-7.9,2.9c-0.8,0.3-1.7,0.6-2.6,0.8c-0.4,0.1-1-0.1-1.3-0.4c-0.2-0.2-0.1-0.9,0.2-1.2
		c0.8-0.8,1.5-1.6,2.5-2.1c7.9-4.6,16.3-8.1,24.7-11.5c6.6-2.7,13-5.9,19.5-8.8c2.5-1.1,3.5-3.6,4.9-5.7c0.6-1,1.4-1.7,2.5-2.2
		c1.8-0.9,3.3-0.5,4.7,0.7C269,151.3,269.5,151.7,270,152.2z"/>
	<path class="st1" d="M306.4,159.6c-1.5,0.8-3,1.6-4.5,2.2c-1.8,0.7-3.5,0-3.6-1.9c-0.2-3.4-1.4-6.8,0.2-10.1c0.5-1.1,1.1-2.2,1.9-3
		c0.5-0.5,1.7-0.7,2.2-0.4c0.6,0.4,1,1.5,0.9,2.2c-0.3,1.7-1,3.3-1.3,5.1c-0.2,0.9,0.1,1.9,0.1,3.4c0.7-0.6,1.1-1,1.5-1.3
		c1.6-1.3,3.1-1.2,4.5,0.3c0.3,0.3,0.6,0.6,0.8,0.9c1.9,3.7,5.4,5.7,9,7c5,1.8,10.2,3.1,15.3,4.6c9.5,2.8,19,5.7,28,9.6
		c0.6,0.3,1,0.9,1.5,1.3c-0.7,0.3-1.4,0.9-2.1,0.8c-2.7-0.3-5.5-0.7-8.1-1.4c-13.4-3.5-26.8-7.2-39.4-13.2c-2.7-1.3-5.3-2.6-6.5-5.6
		C306.7,159.8,306.5,159.7,306.4,159.6z"/>
	<path class="st1" d="M296.5,289.2c-7.8,0.2-15.7,0.1-23.4,1.8c-1.7,0.4-3-1.1-2.6-2.9c0.6-2.9,2.5-5,5.3-5.9c3.2-1,6.5-1.8,9.7-2.3
		c5.2-0.9,10.4-0.3,15.4,1.5c2.4,0.9,4.7,2.4,6.9,3.7c0.5,0.3,0.9,0.9,1.2,1.5c0.8,1.5,0.1,2.6-1.6,2.7c-1.2,0.1-2.5,0-3.7,0
		C301.3,289.2,298.9,289.2,296.5,289.2z M275.6,286.5c8.7-0.3,17.5-0.7,26.2-1C296.9,282,279.6,282.6,275.6,286.5z"/>
	<path class="st1" d="M373.1,202.2c-1.5,3.6-4.3,6.1-6.9,8.8c-0.1-0.1-0.2-0.1-0.3-0.2c2.2-3,4.3-6.1,6.5-9.1
		C372.6,201.9,372.9,202.1,373.1,202.2z"/>
	<path class="st1" d="M209.4,207.1c-1.5-2.1-3-4.1-4.5-6.2c-0.2-0.3,0-0.8,0-1.2c0.4,0.2,0.9,0.3,1,0.6c1.4,2.1,2.6,4.3,3.9,6.5
		C209.8,206.8,209.6,206.9,209.4,207.1z"/>
	<path class="st1" d="M346.6,221.3c-3.8,1-7.5,0.8-11.2-0.4c3.7,0,7.5,0,11.2,0C346.6,221,346.6,221.2,346.6,221.3z"/>
	<path class="st1" d="M224.7,220.4c4.2,0.7,8.4,1.3,12.5,2c0,0.1,0,0.2,0,0.3c-1.4,0-2.9,0.4-4.1-0.1
		C230.4,221.5,227.1,222.6,224.7,220.4z"/>
	<path class="st1" d="M206,204.9c2.2,2.6,4.4,5.2,6.7,7.9c-3.2-1.9-5.7-4.2-7.1-7.6C205.7,205.1,205.8,205,206,204.9z"/>
	<path class="st1" d="M362.5,218.8c-3.1,2.8-6.4,4.9-10.8,5.7C355.5,222.5,359,220.7,362.5,218.8z"/>
	<path class="st1" d="M233.6,226c2.1-0.3,4.1-0.7,6.5-1C239.1,227.2,235.7,227.7,233.6,226z"/>
	<path class="st1" d="M365.6,215.6c1.9-2.4,3.1-5.3,5.7-7.2C370.1,211.4,368.1,213.7,365.6,215.6z"/>
	<path class="st1" d="M357.8,217.5c-1.5,2.3-6.1,4.7-9.1,4.9C351.9,220.6,354.9,219,357.8,217.5z"/>
	<path class="st1" d="M211.8,209.5c2.9,2.4,5.5,5.2,9.4,6.1C217.2,215,213.9,213.2,211.8,209.5z"/>
	<path class="st1" d="M232.7,219.5c-3.3,0-6.6,0.1-9.5-1.7c0-0.2,0.1-0.3,0.1-0.5C226.5,218.1,229.6,218.8,232.7,219.5z"/>
	<path class="st1" d="M341.5,224.7c3.1-0.2,6-1.7,9.2-1.3c0,0.2,0.1,0.4,0.1,0.6c-3.1,0.4-6.1,0.9-9.2,1.3
		C341.6,225.1,341.6,224.9,341.5,224.7z"/>
	<path class="st1" d="M247.4,220.9c-2.7,2.5-6,2.7-9.4,2.7C241.2,222.7,244.3,221.8,247.4,220.9z"/>
	<path class="st1" d="M211.6,215.8c-1.4-0.2-4.3-2.9-4.9-6C208.7,212.3,210.5,214.4,211.6,215.8z"/>
	<path class="st1" d="M349.6,227c-2.2,1.3-4.6,2-7.2,2.3c-0.1-0.2-0.1-0.4-0.2-0.6c2.4-0.8,4.8-1.6,7.1-2.3
		C349.5,226.5,349.5,226.8,349.6,227z"/>
	<path class="st1" d="M359.3,218.6c2.2-2,4.1-3.8,6.3-5.9C365.3,214.7,362.2,217.6,359.3,218.6z"/>
	<path class="st1" d="M358,225.6c-1.6,1.8-3.3,2.8-5.6,3.2C353.3,227.2,356.4,225.4,358,225.6z"/>
	<path class="st1" d="M210.1,218.6c2.2,1,4,1.9,6.2,2.9C214.4,222.4,211.5,220.9,210.1,218.6z"/>
	<path class="st1" d="M214.4,214.8c2.6,1.3,5.1,2.6,7.4,3.7C220,219,216.1,217.2,214.4,214.8z"/>
	<path class="st1" d="M339.6,231.3c3.7-0.4,7.3-0.8,10.8-1.2C347,231.8,343.3,231.5,339.6,231.3z"/>
	<path class="st1" d="M331.2,220.3c3,1,5.7,1.8,8.3,2.7C336.4,223.4,333.9,222.3,331.2,220.3z"/>
	<path class="st1" d="M336.8,229.1c-2.7,0.2-5-0.9-7.1-2.7c2.4,0.8,4.8,1.6,7.2,2.3C336.9,228.8,336.8,229,336.8,229.1z"/>
	<path class="st1" d="M213.3,217.9c3.2,1.4,6.4,2.9,9.4,4.2C219.3,221.5,216.1,220.2,213.3,217.9z"/>
	<path class="st1" d="M251.8,223.8c-1.2,1.6-3.5,2.1-5.7,1.6C248,224.9,249.9,224.4,251.8,223.8z"/>
	<path class="st1" d="M234,225c-2.9,0.4-5.5,0.6-7.9-0.8C228.7,224.5,231.2,224.7,234,225z"/>
	<path class="st1" d="M364.3,212.4c-1.8,1.5-3.6,3-5.4,4.5c-0.1-0.1-0.2-0.2-0.3-0.4c1.7-1.5,3.5-3.1,5.2-4.6
		C364,212.1,364.2,212.2,364.3,212.4z"/>
	<path class="st1" d="M220,222.4c1.8,0.3,3.6,0.5,5.4,0.8C224,224.3,222.4,224,220,222.4z"/>
	<path class="st1" d="M252.1,217.8c-1,0.6-2,1.3-3,1.9c-0.1-0.2-0.2-0.3-0.3-0.5c0.9-0.7,1.9-1.4,2.8-2.2
		C251.7,217.3,251.9,217.6,252.1,217.8z"/>
	<path class="st1" d="M325.8,222.5c0.9,1.1,1.8,2.2,2.8,3.3C327.3,225.6,326.6,224.8,325.8,222.5z"/>
	<path class="st1" d="M363.5,222.2c-1,0.8-2,1.6-2.9,2.4c-0.1-0.2-0.3-0.3-0.4-0.5c1-0.8,2-1.6,2.9-2.4
		C363.2,221.9,363.4,222,363.5,222.2z"/>
	<path class="st1" d="M365,219.2c0.8-0.6,1.5-1.3,2.3-1.9c0.1,0.1,0.2,0.3,0.3,0.4c-0.8,0.6-1.5,1.3-2.3,1.9
		C365.2,219.5,365.1,219.3,365,219.2z"/>
</g>
<g>
	<path class="st1" d="M400.5,327.2c-0.6-0.1-1.2,0.1-1.6,0.6l-10.3,13L375.7,329c-0.5-0.4-1.1-0.5-1.7-0.3c-0.6,0.3-0.9,0.8-0.9,1.4
		l0.3,22.1c0,0.9,0.7,1.6,1.6,1.6c0,0,0,0,0,0c0.9,0,1.6-0.7,1.6-1.6l-0.2-18.5l11.6,10.4c0.3,0.3,0.7,0.4,1.2,0.4
		c0.4,0,0.8-0.3,1.1-0.6l9.3-11.7c1.6,7.4,2.7,14.9,3.1,22.4c0.1,0.8,0.7,1.5,1.6,1.5c0,0,0.1,0,0.1,0c0.9-0.1,1.5-0.8,1.5-1.7
		c-0.5-8.8-1.9-17.5-3.9-26.1C401.6,327.7,401.1,327.3,400.5,327.2z"/>
	<path class="st1" d="M416.4,329.1c-0.8,0-1.5,0.1-2.2,0.2c-3.2,0.7-5.9,2.9-7.3,5.9c-1.1,2.4-1.3,5.1-0.6,7.8
		c0.6,2.4,1.9,4.3,3.7,5.5c1.4,0.9,3.2,1.4,5.1,1.4h0c0.8,0,1.6-0.1,2.5-0.2c3.2-0.6,5.9-2.2,7.5-4.5c2.4-3.3,2.4-8.2,0-11.7
		C423.2,330.7,419.9,329.1,416.4,329.1z M422.5,343.3c-1.2,1.6-3.2,2.8-5.6,3.3c-0.6,0.1-1.3,0.2-1.9,0.2c0,0,0,0,0,0
		c-1.3,0-2.5-0.3-3.4-0.9c-1.1-0.8-2-2.1-2.4-3.7c-0.5-1.9-0.4-4,0.4-5.6c1-2.1,2.9-3.6,5.2-4.1c0.5-0.1,1-0.2,1.5-0.2
		c2.4,0,4.8,1.2,6.1,3.1C424.2,337.6,424.2,341,422.5,343.3z"/>
	<path class="st1" d="M435.2,339.6c2.9-3.4,4.5-6.9,4.8-10.4c0.3-4.6-2.2-8.7-6.4-10.3c-0.5-0.2-1-0.1-1.4,0.2
		c-0.4,0.3-0.7,0.8-0.7,1.3l-0.5,35.3c0,0.9,0.7,1.6,1.5,1.6c0,0,0,0,0,0c0.9,0,1.6-0.7,1.6-1.5l0.2-11.3l9.5,17.5
		c0.3,0.5,0.8,0.8,1.4,0.8c0.3,0,0.5-0.1,0.8-0.2c0.8-0.4,1-1.4,0.6-2.1L435.2,339.6z M434.5,323c1.6,1.4,2.5,3.5,2.3,5.9
		c-0.2,2.5-1.2,4.8-2.5,6.6L434.5,323z"/>
	<path class="st1" d="M464.2,328.8c-0.9,0.1-1.5,0.8-1.5,1.7c0.3,4.5,0,9-0.7,13.4c-4.2-5.1-8.7-9.8-13.5-14.3
		c-0.5-0.4-1.1-0.5-1.7-0.3c-0.6,0.2-0.9,0.8-1,1.4l-0.7,19.1c0,0.9,0.6,1.6,1.5,1.6c0,0,0,0,0.1,0c0.8,0,1.5-0.7,1.6-1.5l0.6-15.6
		c4.6,4.4,8.9,9.2,12.8,14.1c0.4,0.5,1,0.7,1.6,0.6c0.6-0.1,1.1-0.6,1.2-1.2c1.3-5.7,1.8-11.6,1.5-17.5
		C465.8,329.4,465,328.7,464.2,328.8z"/>
	<path class="st1" d="M478.9,350.8L477,351c-0.7-7-1.1-14.2-1.1-21.3c0,0,0-0.1,0-0.1l1.8-0.1c0.9,0,1.5-0.8,1.5-1.6
		c0-0.9-0.8-1.5-1.6-1.5l-6.7,0.3c-0.9,0-1.5,0.8-1.5,1.6c0,0.8,0.7,1.5,1.6,1.5c0,0,0,0,0.1,0l1.7-0.1c0,7.2,0.4,14.5,1.1,21.7
		l-1.1,0.1c-0.9,0.1-1.5,0.9-1.4,1.8c0.1,0.8,0.8,1.4,1.6,1.4c0.1,0,0.1,0,0.2,0l6.1-0.8c0.9-0.1,1.5-0.9,1.4-1.8
		C480.5,351.2,479.7,350.6,478.9,350.8z"/>
	<path class="st1" d="M506,326.8c-0.9,0.1-1.5,0.8-1.5,1.7c0.3,5.3,0,10.7-1,15.9c-5.3-5.3-10.8-10.4-16.6-15.1
		c-0.5-0.4-1.2-0.5-1.7-0.2c-0.6,0.3-0.9,0.9-0.8,1.5c0.5,5.7,0.6,11.4,0.3,17.1c-0.1,0.9,0.6,1.6,1.5,1.7c0,0,0.1,0,0.1,0
		c0.8,0,1.5-0.6,1.6-1.5c0.3-4.6,0.3-9.2,0-13.8c5.4,4.6,10.6,9.5,15.5,14.6c0.4,0.4,1,0.6,1.6,0.4c0.6-0.2,1-0.6,1.1-1.2
		c1.5-6.5,2-13.1,1.6-19.7C507.6,327.4,506.9,326.7,506,326.8z"/>
	<path class="st1" d="M533.3,337C533.3,337,533.3,337,533.3,337c-4.1,0-8.2,0.5-12.2,1.6c-0.8,0.2-1.3,1.1-1.1,1.9
		c0.2,0.7,0.8,1.2,1.5,1.2c0.1,0,0.3,0,0.4-0.1c1.9-0.5,3.9-0.9,5.9-1.1c0.1,1.1,0.3,2.6,0.2,3.6c-0.1,1.1-0.8,2.2-1.8,3
		c-2,1.5-5.2,1.5-7.6,0c-2.2-1.4-3.9-4.1-4.5-7.2c-0.7-3.4-0.1-7,0.3-9.4c0.5-2.4,1.2-5.2,2.8-7.3c1.3-1.7,3.7-3.1,6-2.5
		c0.8,0.2,1.7-0.3,1.9-1.1c0.2-0.8-0.3-1.7-1.1-1.9c-3.2-0.8-6.9,0.7-9.2,3.6c-2.1,2.6-2.9,5.9-3.4,8.7c-0.5,2.7-1.1,6.6-0.3,10.6
		c0.8,4,2.9,7.4,5.9,9.3c1.7,1.1,3.7,1.7,5.7,1.7c2,0,4-0.6,5.5-1.8c0.3-0.2,0.5-0.4,0.7-0.7l0.5,5.1c0.1,0.8,0.8,1.4,1.6,1.4
		c0.1,0,0.1,0,0.2,0c0.9-0.1,1.5-0.9,1.4-1.7l-1.4-13.5c0.7,0,1.5-0.1,2.2-0.1c0.9,0,1.6-0.7,1.6-1.6
		C534.8,337.7,534.1,337,533.3,337z"/>
	<path class="st1" d="M428.2,303.6l-15.5-0.2c0,0,0,0,0,0c-1,0-1.8,0.8-1.8,1.8c0,1,0.8,1.8,1.8,1.9l7.2,0.1c0.4,2.1-1.1,4.6-3,6.1
		c-4.9,3.8-12.6,3.1-16.9-1.3c-4.2-4.5-4.4-12.2-0.4-16.9c4-4.7,11.7-5.6,16.8-2.1c0.8,0.6,2,0.4,2.5-0.5c0.6-0.8,0.4-2-0.5-2.5
		c-6.5-4.6-16.4-3.3-21.6,2.7c-5.2,6-5,16,0.5,21.8c3.1,3.2,7.5,4.9,12,4.9c3.5,0,7-1,9.8-3.2c2.7-2.1,4.8-5.6,4.5-8.9l4.6,0.1
		c0,0,0,0,0,0c1,0,1.8-0.8,1.8-1.8C430,304.4,429.2,303.6,428.2,303.6z"/>
	<path class="st1" d="M443.7,313.2c1.5,0,3-0.4,4.3-1c4.1-2.1,6.3-7.2,5.1-11.7c-0.6-2.1-1.7-3.8-3.3-4.8c-1.6-1-3.8-1.4-6.1-1.2
		c-2.4,0.2-4.5,0.9-6.1,2c-3.8,2.8-4.8,8.7-2.1,12.6C437.4,311.7,440.5,313.2,443.7,313.2z M439.9,299.5c1-0.7,2.5-1.2,4.2-1.4
		c0.3,0,0.6,0,1,0c1.2,0,2.1,0.2,2.8,0.7c0.8,0.5,1.4,1.5,1.8,2.7c0.8,2.9-0.7,6.2-3.3,7.6c-0.8,0.4-1.7,0.6-2.7,0.6
		c-2.1,0-4-1-5.1-2.5C437,304.7,437.6,301.1,439.9,299.5z"/>
	<path class="st1" d="M476.3,306.4c0.7-2.5,0.3-5-1.2-6.9c-1.3-1.7-3.3-2.5-5-3.2c-4.3-1.7-7.3-1.6-9.6,0c-1.7,1.2-2.8,3.2-3.1,5.5
		c-0.6,4.8,2.7,9.7,7.3,10.9c0.7,0.2,1.5,0.3,2.2,0.3C471.3,313.1,475.2,310.3,476.3,306.4z M472.8,305.4c-0.6,2.3-3.1,4-5.7,4
		c-0.5,0-0.9-0.1-1.3-0.2c-2.9-0.8-5-3.9-4.6-7c0.1-1.3,0.7-2.4,1.5-3c0.5-0.4,1.2-0.6,2.1-0.6c1.1,0,2.4,0.3,4.1,1
		c1.2,0.5,2.6,1.1,3.4,2C473,302.7,473.2,304.1,472.8,305.4z"/>
	<path class="st1" d="M484.8,319.5c0.6,0,1.1-0.3,1.4-0.7c6.1,0.5,12.1-1.9,16-6.3c4.3-4.9,5.4-12,2.8-17.7
		c-2.2-4.8-6.4-7.6-9.6-9.2c-3.9-1.9-7.3-2.7-11.3-3.7c-0.6-0.1-1.1,0-1.6,0.4c-0.4,0.4-0.7,0.9-0.7,1.5l1.2,33.9
		C483,318.7,483.8,319.5,484.8,319.5C484.8,319.5,484.8,319.5,484.8,319.5z M493.8,288.9c2.6,1.3,6.1,3.7,7.9,7.5
		c2,4.3,1.1,10-2.2,13.8c-3,3.4-7.9,5.3-12.8,5c0-0.1-0.1-0.2-0.1-0.3l-1-28.8C488.4,286.8,491,287.5,493.8,288.9z"/>
</g>
<path class="st1" d="M305.1,507.2c0.1-0.6-0.2-1.2-0.9-1.4c-7.2-2.9-14.8-3-22.5-2.7c-7.8,0.3-15.8,0.5-23.1,3.7
	c-0.8,0.4-0.3,1.5,0.4,1.5c1.9,0.2,3.7,0.4,5.6,0.5c-0.5,0.3-0.9,0.6-1.4,0.9c-0.7,0.5-0.5,1.8,0.5,1.8c1.6-0.1,3.1-0.1,4.7-0.2
	c0.1,0.7,0.8,1.3,1.5,0.8c0.6-0.4,1.2-0.7,1.7-1.1c0.3-0.2,0.4-0.4,0.4-0.7c0.7,0,1.4,0.1,2.1,0.1c0.3,0.4,0.7,0.7,1.2,0.7
	c9.9,0.6,19.7,0.1,29.6-1.3C306.2,509.7,306.2,507.6,305.1,507.2z M267.3,509.3c0.4-0.2,0.8-0.3,1.2-0.4c0.8-0.3,0.7-1.5-0.2-1.5
	c-1.3,0-2.6,0-3.8-0.1c3.3-0.5,6.7-0.9,10.1-1.2c-1.4,0.3-2.7,0.7-4.1,1.2c-0.9,0.3-1.2,1.2-1,1.9
	C268.8,509.2,268,509.3,267.3,509.3z M291.9,506.4c0-0.2,0-0.5-0.1-0.7c1.9,0.1,3.8,0.4,5.7,0.7
	C295.6,506.3,293.8,506.3,291.9,506.4z"/>
<path class="st1" d="M265.4,507.6c-3.1-9.8-4.5-19.5-4.7-29.7c-0.2-8.5,0.5-18-2.8-26c-0.5-1.1-2-0.7-1.8,0.5
	c3.1,18.6,0.8,37.8,7.4,55.8C264,509.3,265.8,508.8,265.4,507.6z"/>
<path class="st1" d="M269.5,464.5c-0.9-12-1-24.6-3-36.5c-0.2-0.9-1.5-0.6-1.5,0.2c-0.2,12.3,1.7,25,2.7,37.2
	c1,12.4,1.9,24.8,3.1,37.2c0.1,0.9,1.5,0.9,1.4,0C271.5,490,270.5,477.2,269.5,464.5z"/>
<path class="st1" d="M283.7,497.3c0-2-0.1-4-0.3-6.1c0-0.6-0.9-0.6-0.9,0c-0.1,2-0.1,4,0,6.1c0.1,1.5,0,3.1,0.6,4.5
	c0,0.1,0.1,0.1,0.2,0C283.9,500.4,283.7,498.8,283.7,497.3z"/>
<path class="st1" d="M298.7,457.3c-0.2-0.9-1.7-0.7-1.6,0.2c1.3,15.1,2.9,30,2.7,45.2c0,1.1,1.6,1.1,1.7,0
	C302.1,487.7,301.9,472.1,298.7,457.3z"/>
<path class="st1" d="M309.6,442.1c-1.4-6.7-1.2-13.1-1-19.8c0-0.8-1.2-1-1.4-0.2c-1.4,6.7-0.5,13.8,1.3,20.3
	C308.7,443.1,309.8,442.8,309.6,442.1z"/>
<path class="st1" d="M308.2,486c-0.4,3.6-0.6,7.3-0.6,11c0,0.6,0.8,0.5,0.9,0c0.4-3.6,0.8-7.3,0.9-11
	C309.3,485.3,308.3,485.3,308.2,486z"/>
<path class="st1" d="M255,485c0-0.4-0.7-0.5-0.7,0c-0.1,5.8-0.3,11.7,0.4,17.5c0.1,0.6,0.9,0.6,1,0C255.9,496.7,255.5,490.8,255,485
	z"/>
<path class="st1" d="M286.1,521.3c0.4-0.2,0.6-0.8,0.1-1c-0.8-0.4-1.6-0.3-2.5-0.2c-0.9,0.1-1.8,0.1-2.7,0.4c-0.6,0.2-0.4,1,0.1,1
	c0.5,0,1,0,1.5,0c-0.1,1.4,0.1,2.8,0.1,4.2c0,1.3-0.2,2.6,0.1,3.8c-0.7,0.1-1.4,0.1-2.1,0.2c-0.8,0.1-0.8,1.1,0,1.2
	c1,0.1,2,0.1,2.9,0c0.8-0.1,1.6-0.1,2.2-0.6c0.4-0.3,0.1-0.9-0.3-1c-0.5-0.2-1-0.1-1.5,0c0.3-1.3,0-2.7-0.1-4
	c-0.1-1.3-0.1-2.6-0.4-3.9C284.5,521.4,285.3,521.6,286.1,521.3z"/>
<g>
	<path class="st1" d="M274.3,543.1c-1.3-0.5-3-0.4-4.5-0.2c-0.1-2.5-0.3-4.9-0.8-7.3c-0.1-0.5-1-0.4-0.9,0.1
		c0.1,2.7,0.3,5.4,0.1,8.1c0,0.4,0.4,0.8,0.8,0.8c1.7,0,3.6,0.3,5.3-0.1C275,544.3,274.9,543.3,274.3,543.1z"/>
	<path class="st1" d="M275.5,535.9C275.4,535.9,275.4,536,275.5,535.9c-1,2.1-0.7,4.8,0.6,6.5c1.2,1.6,3.2,1.2,3.9-0.6
		c0.8-1.9,0.6-5.3-1.1-6.8C277.8,534.1,275.6,534.4,275.5,535.9z M277.2,541.7c-1.3-1.1-1.5-3-1.4-4.7c0.3,0.1,0.7,0,0.8-0.4
		c1.1-0.5,1.7-0.3,1.9,0.4c0.1,0.3,0.2,0.5,0.3,0.8c0.1,0.4,0.2,0.9,0.2,1.4C279,540.1,278.7,542.9,277.2,541.7z"/>
	<path class="st1" d="M288.6,534.3c-1.1,2.7-2.3,5.3-3.6,7.8c-0.8-2.5-1.5-5.1-2.6-7.5c-0.2-0.4-0.8-0.2-0.8,0.2
		c0.2,3.2,1.4,6.4,2.4,9.4c0.2,0.6,1.1,0.8,1.4,0.2c1.8-3,3.4-6.2,4.4-9.6C290.1,534.1,288.9,533.5,288.6,534.3z"/>
	<path class="st1" d="M297.4,543c-1.3-0.3-2.6,0-3.8,0.4c-0.2-1.1-0.4-2.3-0.6-3.4c1.4,0.2,3.2,0.3,4.3-0.4c0.4-0.3,0.3-0.9-0.1-1
		c-0.7-0.2-1.4,0-2.2,0c-0.7,0.1-1.5,0.1-2.2,0c-0.2-1.1-0.4-2.3-0.6-3.4c0.9,0,1.7,0,2.6,0c0.8,0,1.6,0,2.3-0.4
		c0.5-0.2,0.3-1-0.2-1.1c-0.8-0.2-1.7,0-2.5,0.1c-0.8,0.1-1.7,0.2-2.5,0.4c0,0,0,0,0,0c-0.2-0.1-0.6,0-0.6,0.4
		c-0.1,3.3,0.5,6.7,0.9,9.9c0.1,0.5,0.5,0.9,1,0.8c1.4-0.4,2.9-0.5,4.2-0.9C298,544,298.1,543.1,297.4,543z"/>
</g>
<g>
	<path class="st1" d="M282.4,550.8c-0.6,1.2-1.3,2.3-2.1,3.4c-1.1-1-2.2-2-3.3-3c-0.6-0.5-1.4,0-1.3,0.7c0.5,2.9,0.6,5.8,1,8.6
		c0.1,0.5,0.9,0.4,0.9-0.1c0-2.3-0.2-4.6-0.4-6.9c0.8,0.8,1.7,1.6,2.5,2.4c0.3,0.3,0.9,0.4,1.2,0c0.6-0.7,1.2-1.5,1.7-2.3
		c0.3,2.2,0.7,4.5,1.1,6.7c0.2,1.1,1.8,0.6,1.6-0.4c-0.4-3-1-6-1.5-9C283.8,550.3,282.7,550.2,282.4,550.8z"/>
	<path class="st1" d="M294.5,551.4c0.5-0.8-0.6-1.6-1.3-1c-1.1,1.1-2,2.3-3,3.6c-1.2-1.2-2.4-2.5-3.8-3.6c-0.5-0.4-1,0.3-0.7,0.7
		c0,0,0,0,0,0c1.1,1.7,2.7,3.2,4,4.8c0,0,0,0,0,0c0,0.9,0,1.8,0,2.8c0,1-0.1,2.2,0.3,3.1c0.2,0.5,1,0.6,1.2,0c0.3-1.1,0-2.3-0.1-3.4
		c-0.1-0.8-0.1-1.7-0.2-2.5c0,0,0.1,0,0.1,0C292.2,554.4,293.5,553,294.5,551.4z"/>
</g>
<g>
	<path class="st1" d="M282.8,568.1c-1.3-0.9-3.3-0.7-4.9-0.6c-1.3,0-2.8,0-3.8,0.9c-0.4,0.4,0,1.2,0.6,0.9c1.2-0.6,2.7-0.4,4-0.4
		c0.2,3.6,1,9.5-4.3,8c-0.6-0.2-1.1,0.5-0.7,1c1.5,1.9,4.5,0.8,5.6-0.9c1.6-2.3,1-5.3,0.6-8c0.9,0.1,1.9,0.3,2.8,0.1
		C282.9,568.9,283.2,568.4,282.8,568.1z"/>
	<path class="st1" d="M286.9,567.4c-0.9-0.4-1.8-0.2-2.3,0.6c0,0.1-0.1,0.2-0.1,0.2c-1.8,0.7-1.4,4.8-1.2,6.1
		c0.1,1.1,0.7,6.6,3.1,4.8c1-0.8,1.5-2.7,1.8-3.8c0.4-1.6,0.5-3.3,0.3-5C288.4,569.2,288,568,286.9,567.4z M285.5,577.8
		c-0.4,0-2.2-8.7-0.2-8.8c0.1,0,0.2-0.1,0.3-0.1c1.9-0.5,1.6,3.6,1.5,4.3C287,573.8,286.3,577.7,285.5,577.8z"/>
	<path class="st1" d="M292.9,571.7c0.6-0.9,0.7-2.1,0.3-3.1c-0.5-1.2-1.7-1.7-2.7-1c-0.3,0-0.6,0.2-0.6,0.6c0.2,3.3,0,7,0.8,10.2
		c0.1,0.5,0.9,0.6,1.1,0.1c2,0.6,4.9-0.5,5.3-2.6C297.6,573.2,295.2,572,292.9,571.7z M292,570.6c-0.1,0.3-0.3,0.6-0.6,0.8
		c-0.1-1-0.3-1.9-0.4-2.8C292.1,568.9,292.5,569.6,292,570.6z M294.2,576.8c-0.6,0.4-1.5,0.3-2.3,0.2c0-1.3-0.1-2.6-0.3-3.9
		c1.1,0,3.2,0.1,3.5,1.1C295.4,574.9,294.8,576.4,294.2,576.8z"/>
</g>
</svg>
